<?xml version="1.0" encoding="UTF-8" standalone="no"?>
<svg
   xmlns:dc="http://purl.org/dc/elements/1.1/"
   xmlns:cc="http://creativecommons.org/ns#"
   xmlns:rdf="http://www.w3.org/1999/02/22-rdf-syntax-ns#"
   xmlns:svg="http://www.w3.org/2000/svg"
   xmlns="http://www.w3.org/2000/svg"
   xmlns:sodipodi="http://sodipodi.sourceforge.net/DTD/sodipodi-0.dtd"
   xmlns:inkscape="http://www.inkscape.org/namespaces/inkscape"
   version="1.1"
   id="svg2"
   viewBox="0 0 500.00001 500.00001"
   height="141.11111mm"
   width="141.11111mm"
   inkscape:version="0.91 r"
   sodipodi:docname="rosa.svg">
  <sodipodi:namedview
     pagecolor="#ffffff"
     bordercolor="#666666"
     borderopacity="1"
     objecttolerance="10"
     gridtolerance="10"
     guidetolerance="10"
     inkscape:pageopacity="0"
     inkscape:pageshadow="2"
     inkscape:window-width="1366"
     inkscape:window-height="744"
     id="namedview21"
     showgrid="false"
     fit-margin-top="0"
     fit-margin-left="0"
     fit-margin-right="0"
     fit-margin-bottom="0"
     inkscape:zoom="0.18735819"
     inkscape:cx="249.45653"
     inkscape:cy="250.94087"
     inkscape:window-x="0"
     inkscape:window-y="24"
     inkscape:window-maximized="1"
     inkscape:current-layer="svg2" />
  <defs
     id="defs4">
    <pattern
       height="100"
       width="100"
       y="0"
       x="0"
       patternUnits="userSpaceOnUse"
       id="gridpattern">
      <image
         height="100"
         width="100"
         y="0"
         x="0"
         id="image3564" />
    </pattern>
  </defs>
  <metadata
     id="metadata7">
    <rdf:RDF>
      <cc:Work
         rdf:about="">
        <dc:format>image/svg+xml</dc:format>
        <dc:type
           rdf:resource="http://purl.org/dc/dcmitype/StillImage" />
        <dc:title></dc:title>
      </cc:Work>
    </rdf:RDF>
  </metadata>
  <g
     id="g3368"
     transform="matrix(0.99628364,0,0,0.99625045,1.7653839e-8,1.5219413e-5)">
    <path
       inkscape:connector-curvature="0"
       id="path3480"
       d="m 228.61828,477.89567 c -19.05246,-4.31342 -36.66051,-12.56155 -50.67676,-23.73849 -4.76328,-3.79839 -9.89273,-6.90615 -11.39876,-6.90615 -5.83654,0 -24.90022,-3.93781 -33.34174,-6.88711 -39.126029,-13.66982 -69.522669,-49.56459 -76.468749,-90.30039 -0.89697,-5.26041 -0.88317,-5.25969 21.59587,1.14005 l 18.27392,5.20255 11.874999,12.03884 c 25.42895,25.77976 58.66691,47.08052 97.8083,62.68107 32.29551,12.872 72.44411,21.12499 102.76744,21.12499 6.0263,0 10.67426,0.52535 10.67426,1.2065 0,0.66359 -1.76429,3.21592 -3.92065,5.67187 -4.82151,5.49142 -20.73681,13.38649 -34.27183,17.00117 -13.01355,3.47542 -41.20777,4.41587 -52.9163,1.7651 z"
       style="fill:#c49f75" />
    <path
       inkscape:connector-curvature="0"
       id="path3478"
       d="m 346.71612,444.93559 c -0.33432,-0.54096 2.20672,-5.16316 5.64676,-10.27156 31.4548,-46.70969 56.2365,-106.1919 68.5842,-164.61911 6.6321,-31.3821 8.0511,-44.728 8.1051,-76.23146 0.032,-18.86138 0.4968,-29.06257 1.323,-29.06251 1.5756,1e-4 23.4625,16.27867 29.1377,21.67138 5.034,4.78354 12.8443,20.53945 16.521,33.3287 3.854,13.40551 4.7652,39.57703 1.8746,53.84238 -3.9065,19.27927 -11.905,36.28349 -24.4314,51.93886 -5.2929,6.61501 -5.7103,7.70623 -7.0692,18.48265 -5.7348,45.4762 -37.702,83.84754 -81.05582,97.29392 -12.37806,3.83911 -17.84691,4.90341 -18.63594,3.62675 z"
       style="fill:#c49f75" />
    <path
       inkscape:connector-curvature="0"
       id="path3472"
       d="m 152.85206,355.43468 c -38.25775,-8.7161 -90.856009,-22.99481 -99.922149,-27.12562 -3.42454,-1.56033 -13.50978,-15.43058 -18.49268,-25.43303 -18.13548,-36.40439 -15.28073,-82.35189 7.22304,-116.25525 2.56431,-3.86329 5.09672,-6.56755 5.62759,-6.00946 0.53086,0.5581 3.61687,7.76471 6.85779,16.01471 13.18601,33.56595 31.08693,63.1178 57.659059,95.18677 12.27499,14.81428 41.55397,43.76232 57.92235,57.26765 6.53125,5.38886 12.0625,10.27552 12.29166,10.85924 0.74163,1.88905 -4.98022,1.00528 -29.16666,-4.50501 z"
       style="fill:#c49f75" />
    <path
       inkscape:connector-curvature="0"
       id="path3456"
       d="m 69.210301,195.44228 c -3.82435,-9.15298 -8.29314,-22.30135 -10.69066,-31.45481 l -2.44059,-9.31791 2.93631,-11.52177 c 3.5782,-14.04045 7.46625,-22.99935 15.10832,-34.81279 13.44304,-20.780808 35.541939,-38.536728 57.263989,-46.010208 7.08279,-2.43683 7.21444,-2.43656 24.2001,0.0504 32.38173,4.74101 80.34824,15.62451 79.13929,17.95651 -0.34375,0.66308 -7.65625,2.99415 -16.25,5.18018 -19.78581,5.03296 -30.86751,9.05151 -48.125,17.451498 -41.46513,20.18291 -74.078789,50.60642 -92.675289,86.45172 -5.80431,11.18798 -6.19421,11.46555 -8.46647,6.02726 z"
       style="fill:#c49f75" />
    <path
       inkscape:connector-curvature="0"
       id="path3415"
       d="M 436.00158,152.09204 C 419.81278,140.40597 383.09888,120.10293 355.97706,107.83788 306.59392,85.505832 254.12345,68.077822 201.69248,56.592432 c -11.04973,-2.42053 -21.49667,-4.72174 -23.21542,-5.11382 l -3.125,-0.71287 4.56258,-3.94485 c 10.35276,-8.95114 27.31327,-17.11152 44.81242,-21.56106 13.61647,-3.46229 41.74459,-3.17434 55.625,0.56943 16.2174,4.37409 34.53368,13.90467 47.10483,24.51023 4.01953,3.39106 6.14898,4.07987 16.75344,5.41924 13.68001,1.72781 31.49633,7.24949 41.76675,12.94441 18.685,10.36084 35.6801,27.05753 46.0983,45.288988 6.2392,10.91831 12.1188,27.0545 13.3713,36.6964 1.0526,8.1036 0.044,8.25346 -9.4451,1.40351 z"
       style="fill:#c49f75" />
    <path
       inkscape:connector-curvature="0"
       style="fill:#f26762"
       d="m 232.17104,500.8767 c -20.21742,-2.61477 -43.78273,-11.97436 -61.62248,-24.47501 -8.86445,-6.21147 -11.16124,-7.20817 -20.1022,-8.7234 C 90.431071,457.50757 45.521011,413.35137 34.884681,354.05645 c -1.28583,-7.16821 -3.2694,-14.30376 -4.40793,-15.85677 C 12.477931,313.64844 3.8108109,292.23418 0.75686094,264.76939 -2.8620291,232.22387 6.6357009,196.78852 26.267871,169.58964 c 5.68849,-7.88099 7.03573,-10.75579 7.76104,-16.56099 6.31677,-50.55773 42.78171,-95.140278 92.111359,-112.616628 8.66159,-3.0686 10.26995,-3.26717 17.5,-2.16049 8.96867,1.37279 10.422,0.91021 17.76025,-5.6529 12.15392,-10.87008 32.76384,-21.77207 51.33174,-27.1528405 40.30275,-11.67927 82.6989,-4.43158 119.23625,20.3836305 9.21375,6.25774 12.03229,7.52873 18.37086,8.28412 10.61062,1.26452 27.04114,6.25337 38.90431,11.81266 42.5192,19.92517 71.7413,59.589548 78.7258,106.858088 1.8256,12.35445 1.9666,12.6955 7.4812,18.09833 6.9012,6.76126 16.6893,26.11651 21.1234,41.76991 11.7609,41.51807 3.648,86.9309 -21.675,121.32982 -4.8676,6.61218 -5.8333,8.98605 -7.2471,17.81475 -5.5188,34.46454 -23.5873,65.5809 -50.4028,86.80062 -21.8679,17.30451 -44.66861,26.53585 -75.4665,30.55415 -5.11907,0.66791 -6.97838,1.72896 -11.875,6.7767 -17.51113,18.05156 -62.42207,29.51548 -97.73665,24.94813 z m 40.68102,-3.84525 c 20.88633,-3.14306 44.26095,-13.3148 55.8447,-24.30143 5.77575,-5.47803 7.89963,-6.72899 11.42441,-6.72899 2.38135,0 8.81316,-0.8505 14.29294,-1.88999 42.09867,-7.98597 78.16377,-35.12719 97.14837,-73.11001 6.7736,-13.55218 10.2769,-24.25113 13.1153,-40.05426 1.5276,-8.50449 3.0807,-13.49525 4.7734,-15.33849 4.7766,-5.20158 14.0871,-20.77889 18.2204,-30.48467 13.214,-31.02891 14.7228,-64.63084 4.3388,-96.62258 -4.5782,-14.10453 -13.2609,-29.96341 -19.9176,-36.37946 -5.0201,-4.83853 -6.1157,-6.6738 -6.1157,-10.24444 0,-6.51295 -3.3962,-23.14964 -6.7138,-32.88873 -16.5171,-48.486758 -59.3669,-84.477058 -109.26441,-91.773028 -8.15317,-1.19216 -11.25959,-2.27251 -14.93672,-5.19474 C 327.0079,25.619922 313.12121,17.477962 303.4724,13.499112 257.18267,-5.5892385 204.75293,2.0291915 165.46287,33.552932 l -10.97896,8.80879 -10.19092,-0.80831 c -8.98107,-0.71234 -11.15553,-0.44269 -18.31593,2.27128 -35.098569,13.30326 -61.342659,37.177 -76.846389,69.905698 -6.26682,13.22939 -11.88969,32.59155 -11.91259,41.02064 -0.0124,4.55455 -0.86423,6.69306 -4.47629,11.23744 -27.0665401,34.05263 -36.4405501,79.94597 -24.7590701,121.21555 3.7758201,13.33964 13.3645201,33.05119 21.5185501,44.23583 5.58742,7.6641 6.37194,9.56788 7.70794,18.70479 6.35296,43.44822 34.66568,82.20363 74.392849,101.83151 12.91016,6.37849 23.86858,9.93075 39.04394,12.65644 10.82772,1.94479 13.00382,2.79732 19.08849,7.4782 9.48381,7.29584 34.71843,19.35244 47.39685,22.64528 17.92832,4.65632 35.20947,5.36201 55.72072,2.27538 z m 4.10354,-61.80922 c -44.85915,-6.49247 -93.56121,-26.42099 -130.06756,-53.22264 -10.73698,-7.88271 -18.41098,-14.60717 -18.41098,-16.13291 0,-0.49166 3.51563,-0.059 7.8125,0.96134 68.19623,16.19483 145.72623,27.8742 198.78089,29.94498 l 22.17654,0.86558 -3.92808,6.99372 c -2.16044,3.84656 -7.48561,12.40318 -11.83372,19.01473 -6.60619,10.04507 -8.55618,12.15111 -11.86316,12.8125 -6.86393,1.37279 -40.01316,0.59401 -52.66643,-1.2373 z m 34.64646,-55.5895 c -18.54826,-1.51128 -53.7231,-5.9212 -75,-9.40288 -20.17736,-3.30174 -21.07277,-3.68212 -36.1669,-15.36375 -4.07929,-3.15703 -8.0005,-6.13136 -8.7138,-6.60961 -2.66326,-1.78564 0.36681,-2.29717 6.05558,-1.0223 10.71666,2.40165 32.84092,3.54296 46.85023,2.41683 36.64903,-2.94601 76.04892,-17.39722 112.89635,-41.40843 8.4307,-5.49377 16.56554,-11.12923 18.07744,-12.52326 4.68277,-4.3177 6.11043,-2.26539 8.32782,11.97161 3.8326,24.60757 3.5182,26.31847 -10.63081,57.85887 -5.66623,12.63095 -6.60076,13.9947 -10.0648,14.6875 -5.1191,1.02382 -36.09736,0.66107 -51.63111,-0.60458 z m -96.875,-45.74978 c -17.28206,-1.84863 -39.14717,-8.52597 -55.29708,-16.88706 -7.82671,-4.05202 -11.64257,-7.16686 -20,-16.32576 l -10.32792,-11.31836 0.13909,-11.36286 c 0.29018,-23.70844 8.58542,-47.99876 24.58412,-71.98788 8.61872,-12.92325 28.03097,-31.7034 40.38128,-39.06639 16.02218,-9.55207 15.69492,-9.50106 30.67924,-4.78277 7.13145,2.24555 17.74752,6.37857 23.59127,9.18448 l 10.625,5.10167 -11.875,1.00559 c -22.75399,1.92685 -39.03894,8.93668 -53.27566,22.93242 -14.20597,13.96551 -20.43234,28.6264 -20.4595,48.17487 -0.0288,20.6593 6.92995,36.85539 21.97539,51.14709 22.99863,21.84645 55.8646,28.71426 87.00096,18.18009 4.95312,-1.67576 9.21661,-2.83591 9.47442,-2.57811 0.97806,0.97806 -3.63779,8.25335 -6.30412,9.93626 -3.76044,2.37346 -22.73754,6.63867 -36.53649,8.21177 -10.82585,1.23417 -25.20289,1.41608 -34.375,0.43495 z m 96.25,-19.03197 c 0,-0.5985 1.66721,-5.00607 3.70491,-9.7946 9.32367,-21.91028 13.50592,-45.8332 11.21154,-64.13118 -4.47297,-35.67273 -25.21806,-61.23852 -66.16184,-81.53641 l -18.12038,-8.98318 6.24538,-0.96191 c 10.67558,-1.64423 32.94339,0.815 48.23224,5.32672 7.58952,2.23965 8.92099,3.19397 16.9421,12.14315 21.19941,23.65221 35.75637,44.42692 47.09621,67.21246 6.79612,13.65566 15.84984,36.38724 15.84984,39.79484 0,0.97845 -2.51114,3.8367 -5.58031,6.35166 -16.8324,13.79288 -59.41969,38.57595 -59.41969,34.57845 z m -70.625,-8.88891 c -2.75,-0.55827 -6.40625,-1.56105 -8.125,-2.22839 l -3.125,-1.21335 3.125,-0.65276 c 1.71875,-0.35903 6.30584,-1.29174 10.19354,-2.07268 25.80703,-5.18403 43.59994,-27.81993 43.80598,-55.72943 0.12288,-16.6379 -4.22939,-30.46472 -13.31847,-42.31208 l -4.69719,-6.12265 4.19556,0.69502 c 6.8463,1.13414 18.33962,5.89234 22.31719,9.23926 5.04884,4.24831 12.11542,19.06098 14.51989,30.43602 2.32072,10.97885 1.78435,25.71883 -1.45558,40 -1.8372,8.09811 -2.82566,10.02356 -7.25733,14.13677 -13.74393,12.75625 -40.55858,19.8073 -60.17859,15.82427 z m 155.08212,-20.89854 c -8.9441,-38.5091 -31.35268,-82.16395 -59.19149,-115.3125 -19.49417,-23.2123 -50.36207,-51.11699 -74.74802,-67.57246 -5.09718,-3.439548 -9.26761,-6.748588 -9.26761,-7.353418 0,-0.60483 4.90207,-1.50803 10.89349,-2.00712 12.92833,-1.07693 17.92575,0.2873 55.62217,15.184088 41.68699,16.47378 91.34196,41.77322 92.71356,47.23799 4.8807,19.44642 3.7946,64.07527 -2.361,97.01092 -3.1107,16.6439 -9.5006,42.5 -10.5032,42.5 -0.4994,0 -1.9204,-4.35938 -3.1579,-9.6875 z m -186.84442,-0.8829 c -5.00931,-0.985 -8.67684,-2.46171 -9.78535,-3.94004 -6.57374,-8.76681 -11.04591,-25.5511 -9.70597,-36.42706 0.44468,-3.60938 1.20832,-6.5625 1.69697,-6.5625 0.48865,0 4.5958,1.96861 9.127,4.37469 25.66743,13.62945 46.97091,13.38095 64.94228,-0.75757 2.48195,-1.95261 4.87257,-3.19026 5.3125,-2.75032 1.3999,1.3999 0.86377,9.61129 -1.13007,17.30807 -2.8883,11.14969 -9.8429,20.53407 -18.69506,25.22667 -9.96367,5.28181 -25.96759,6.63381 -41.7623,3.52806 z m -99.80898,-20.3671 c -5.2844,-6.77468 -15.307709,-22.00301 -21.487159,-32.64527 -6.27851,-10.81283 -6.2555,-12.28807 0.43225,-27.72057 5.66226,-13.06613 18.150879,-31.83375 28.931889,-43.47823 24.85819,-26.84914 64.1502,-49.83238 101.92926,-59.62193 7.58837,-1.966338 7.59149,-1.966008 13.42759,1.40149 14.01134,8.0847 43.9667,29.6111 43.95964,31.59008 -10e-4,0.43282 -9.14217,0.83511 -20.3125,0.89399 -17.65688,0.0931 -21.88019,0.52724 -32.33329,3.32393 -39.38188,10.53645 -73.19912,38.8438 -93.41032,78.19084 -7.33,14.27001 -12.93269,30.42615 -15.15123,43.69067 -0.83365,4.98438 -1.69889,9.0625 -1.92275,9.0625 -0.22386,0 -2.05239,-2.10937 -4.06338,-4.6875 z m 112.19628,-30.09648 c -7.21719,-2.41558 -17.68613,-7.49977 -21.80556,-10.58977 -2.31138,-1.73378 -2.32691,-1.98134 -0.31679,-5.04918 4.24339,-6.47622 12.96158,-13.60205 21.95481,-17.94478 7.9782,-3.85258 10.02854,-4.34894 15.35742,-3.71782 10.9461,1.29642 21.77153,8.97142 27.16653,19.26052 1.30679,2.49223 0.88633,3.43118 -3.82545,8.54285 -2.91147,3.15858 -7.56887,6.90475 -10.34977,8.32481 -7.07475,3.61271 -19.3642,4.12441 -28.18119,1.17337 z"
       id="path3413" />
  </g>
</svg>
